<svg viewBox="0 0 400 150" xmlns="http://www.w3.org/2000/svg" preserveAspectRatio="xMidYMid slice"><defs><linearGradient id="s" x1="0" y1="0" x2="0" y2="1"><stop offset="0" stop-color="#ffd8a8"/><stop offset="1" stop-color="#ffeccf"/></linearGradient></defs><rect width="400" height="150" fill="url(#s)"/><circle cx="332" cy="38" r="22" fill="#fff" opacity="0.85"/><g transform="translate(60,124)"><rect x="-3.3000000000000003" y="-50.6" width="6.6000000000000005" height="50.6" rx="3" fill="#7a5230"/><g transform="translate(0,-50.6)"><path d="M0 0 Q -27.5 -24.200000000000003 -55 -8.8" stroke="#3f8f5a" stroke-width="4.4" fill="none" stroke-linecap="round"/><path d="M0 0 Q -12.5 -24.200000000000003 -25 -8.8" stroke="#3f8f5a" stroke-width="4.4" fill="none" stroke-linecap="round"/><path d="M0 0 Q 0.0 -24.200000000000003 0 -8.8" stroke="#3f8f5a" stroke-width="4.4" fill="none" stroke-linecap="round"/><path d="M0 0 Q 12.5 -24.200000000000003 25 -8.8" stroke="#3f8f5a" stroke-width="4.4" fill="none" stroke-linecap="round"/><path d="M0 0 Q 27.5 -24.200000000000003 55 -8.8" stroke="#3f8f5a" stroke-width="4.4" fill="none" stroke-linecap="round"/></g></g><g transform="translate(120,124)"><rect x="-2.55" y="-39.1" width="5.1" height="39.1" rx="3" fill="#7a5230"/><g transform="translate(0,-39.1)"><path d="M0 0 Q -27.5 -18.7 -55 -6.8" stroke="#2e7d4f" stroke-width="3.4" fill="none" stroke-linecap="round"/><path d="M0 0 Q -12.5 -18.7 -25 -6.8" stroke="#2e7d4f" stroke-width="3.4" fill="none" stroke-linecap="round"/><path d="M0 0 Q 0.0 -18.7 0 -6.8" stroke="#2e7d4f" stroke-width="3.4" fill="none" stroke-linecap="round"/><path d="M0 0 Q 12.5 -18.7 25 -6.8" stroke="#2e7d4f" stroke-width="3.4" fill="none" stroke-linecap="round"/><path d="M0 0 Q 27.5 -18.7 55 -6.8" stroke="#2e7d4f" stroke-width="3.4" fill="none" stroke-linecap="round"/></g></g><g transform="translate(300,124)"><rect x="-3.0" y="-46.0" width="6.0" height="46.0" rx="3" fill="#7a5230"/><g transform="translate(0,-46.0)"><path d="M0 0 Q -27.5 -22.0 -55 -8.0" stroke="#3f8f5a" stroke-width="4.0" fill="none" stroke-linecap="round"/><path d="M0 0 Q -12.5 -22.0 -25 -8.0" stroke="#3f8f5a" stroke-width="4.0" fill="none" stroke-linecap="round"/><path d="M0 0 Q 0.0 -22.0 0 -8.0" stroke="#3f8f5a" stroke-width="4.0" fill="none" stroke-linecap="round"/><path d="M0 0 Q 12.5 -22.0 25 -8.0" stroke="#3f8f5a" stroke-width="4.0" fill="none" stroke-linecap="round"/><path d="M0 0 Q 27.5 -22.0 55 -8.0" stroke="#3f8f5a" stroke-width="4.0" fill="none" stroke-linecap="round"/></g></g><rect x="0" y="120" width="400" height="30" fill="#000000" opacity="0.05"/></svg>