<svg viewBox="0 0 400 150" xmlns="http://www.w3.org/2000/svg" preserveAspectRatio="xMidYMid slice"><defs><linearGradient id="s" x1="0" y1="0" x2="0" y2="1"><stop offset="0" stop-color="#7fd1e8"/><stop offset="1" stop-color="#d6f2fb"/></linearGradient></defs><rect width="400" height="150" fill="url(#s)"/><g fill="#ffffff" opacity="0.5"><ellipse cx="80" cy="34" rx="26" ry="10"/><ellipse cx="112" cy="30" rx="20" ry="9"/><ellipse cx="240" cy="26" rx="22" ry="9"/></g><g transform="translate(150,44) rotate(-8)" fill="#ffffff" opacity="0.92"><path d="M0 0 L34 -4 L46 0 L34 4 Z"/><path d="M14 0 L20 -12 L24 -12 L22 0 Z"/><path d="M14 0 L20 12 L24 12 L22 0 Z"/></g><g transform="translate(60,124)"><rect x="-3.3000000000000003" y="-50.6" width="6.6000000000000005" height="50.6" rx="3" fill="#7a5230"/><g transform="translate(0,-50.6)"><path d="M0 0 Q -27.5 -24.200000000000003 -55 -8.8" stroke="#2e8b57" stroke-width="4.4" fill="none" stroke-linecap="round"/><path d="M0 0 Q -12.5 -24.200000000000003 -25 -8.8" stroke="#2e8b57" stroke-width="4.4" fill="none" stroke-linecap="round"/><path d="M0 0 Q 0.0 -24.200000000000003 0 -8.8" stroke="#2e8b57" stroke-width="4.4" fill="none" stroke-linecap="round"/><path d="M0 0 Q 12.5 -24.200000000000003 25 -8.8" stroke="#2e8b57" stroke-width="4.4" fill="none" stroke-linecap="round"/><path d="M0 0 Q 27.5 -24.200000000000003 55 -8.8" stroke="#2e8b57" stroke-width="4.4" fill="none" stroke-linecap="round"/></g></g><g transform="translate(120,124)"><rect x="-2.55" y="-39.1" width="5.1" height="39.1" rx="3" fill="#7a5230"/><g transform="translate(0,-39.1)"><path d="M0 0 Q -27.5 -18.7 -55 -6.8" stroke="#3f9d63" stroke-width="3.4" fill="none" stroke-linecap="round"/><path d="M0 0 Q -12.5 -18.7 -25 -6.8" stroke="#3f9d63" stroke-width="3.4" fill="none" stroke-linecap="round"/><path d="M0 0 Q 0.0 -18.7 0 -6.8" stroke="#3f9d63" stroke-width="3.4" fill="none" stroke-linecap="round"/><path d="M0 0 Q 12.5 -18.7 25 -6.8" stroke="#3f9d63" stroke-width="3.4" fill="none" stroke-linecap="round"/><path d="M0 0 Q 27.5 -18.7 55 -6.8" stroke="#3f9d63" stroke-width="3.4" fill="none" stroke-linecap="round"/></g></g><g transform="translate(300,124)"><rect x="-3.0" y="-46.0" width="6.0" height="46.0" rx="3" fill="#7a5230"/><g transform="translate(0,-46.0)"><path d="M0 0 Q -27.5 -22.0 -55 -8.0" stroke="#2e8b57" stroke-width="4.0" fill="none" stroke-linecap="round"/><path d="M0 0 Q -12.5 -22.0 -25 -8.0" stroke="#2e8b57" stroke-width="4.0" fill="none" stroke-linecap="round"/><path d="M0 0 Q 0.0 -22.0 0 -8.0" stroke="#2e8b57" stroke-width="4.0" fill="none" stroke-linecap="round"/><path d="M0 0 Q 12.5 -22.0 25 -8.0" stroke="#2e8b57" stroke-width="4.0" fill="none" stroke-linecap="round"/><path d="M0 0 Q 27.5 -22.0 55 -8.0" stroke="#2e8b57" stroke-width="4.0" fill="none" stroke-linecap="round"/></g></g><rect x="0" y="120" width="400" height="30" fill="#000000" opacity="0.05"/></svg>