<svg viewBox="0 0 400 150" xmlns="http://www.w3.org/2000/svg" preserveAspectRatio="xMidYMid slice"><defs><linearGradient id="s" x1="0" y1="0" x2="0" y2="1"><stop offset="0" stop-color="#9bdca0"/><stop offset="1" stop-color="#e0f6e2"/></linearGradient></defs><rect width="400" height="150" fill="url(#s)"/><circle cx="332" cy="38" r="22" fill="#fff" opacity="0.85"/><path d="M6 120 L22 78 L38 120 Z" fill="#3f9d63"/><path d="M10 106 L22 84 L34 106 Z" fill="#3f9d63"/><path d="M40 120 L56 78 L72 120 Z" fill="#2e7d4f"/><path d="M44 106 L56 84 L68 106 Z" fill="#2e7d4f"/><path d="M74 120 L90 78 L106 120 Z" fill="#3f9d63"/><path d="M78 106 L90 84 L102 106 Z" fill="#3f9d63"/><path d="M108 120 L124 78 L140 120 Z" fill="#2e7d4f"/><path d="M112 106 L124 84 L136 106 Z" fill="#2e7d4f"/><path d="M142 120 L158 78 L174 120 Z" fill="#3f9d63"/><path d="M146 106 L158 84 L170 106 Z" fill="#3f9d63"/><path d="M176 120 L192 78 L208 120 Z" fill="#2e7d4f"/><path d="M180 106 L192 84 L204 106 Z" fill="#2e7d4f"/><path d="M210 120 L226 78 L242 120 Z" fill="#3f9d63"/><path d="M214 106 L226 84 L238 106 Z" fill="#3f9d63"/><path d="M244 120 L260 78 L276 120 Z" fill="#2e7d4f"/><path d="M248 106 L260 84 L272 106 Z" fill="#2e7d4f"/><path d="M278 120 L294 78 L310 120 Z" fill="#3f9d63"/><path d="M282 106 L294 84 L306 106 Z" fill="#3f9d63"/><path d="M312 120 L328 78 L344 120 Z" fill="#2e7d4f"/><path d="M316 106 L328 84 L340 106 Z" fill="#2e7d4f"/><path d="M346 120 L362 78 L378 120 Z" fill="#3f9d63"/><path d="M350 106 L362 84 L374 106 Z" fill="#3f9d63"/><path d="M380 120 L396 78 L412 120 Z" fill="#2e7d4f"/><path d="M384 106 L396 84 L408 106 Z" fill="#2e7d4f"/><rect x="0" y="120" width="400" height="30" fill="#000000" opacity="0.05"/></svg>