<svg viewBox="0 0 400 150" xmlns="http://www.w3.org/2000/svg" preserveAspectRatio="xMidYMid slice"><defs><linearGradient id="s" x1="0" y1="0" x2="0" y2="1"><stop offset="0" stop-color="#8fd3e8"/><stop offset="1" stop-color="#dff3fb"/></linearGradient></defs><rect width="400" height="150" fill="url(#s)"/><g fill="#ffffff" opacity="0.5"><ellipse cx="80" cy="34" rx="26" ry="10"/><ellipse cx="112" cy="30" rx="20" ry="9"/><ellipse cx="240" cy="26" rx="22" ry="9"/></g><circle cx="332" cy="38" r="22" fill="#fff" opacity="0.85"/><ellipse cx="200" cy="134" rx="155" ry="26" fill="#e6c06a"/><g transform="translate(200,124)"><rect x="-3.0" y="-46.0" width="6.0" height="46.0" rx="3" fill="#7a5230"/><g transform="translate(0,-46.0)"><path d="M0 0 Q -27.5 -22.0 -55 -8.0" stroke="#2e8b57" stroke-width="4.0" fill="none" stroke-linecap="round"/><path d="M0 0 Q -12.5 -22.0 -25 -8.0" stroke="#2e8b57" stroke-width="4.0" fill="none" stroke-linecap="round"/><path d="M0 0 Q 0.0 -22.0 0 -8.0" stroke="#2e8b57" stroke-width="4.0" fill="none" stroke-linecap="round"/><path d="M0 0 Q 12.5 -22.0 25 -8.0" stroke="#2e8b57" stroke-width="4.0" fill="none" stroke-linecap="round"/><path d="M0 0 Q 27.5 -22.0 55 -8.0" stroke="#2e8b57" stroke-width="4.0" fill="none" stroke-linecap="round"/></g></g><g stroke="#ffffff" stroke-width="2" opacity="0.5" fill="none"><path d="M24 132 q10 -6 20 0 t20 0"/><path d="M320 128 q10 -6 20 0 t20 0"/></g><rect x="0" y="120" width="400" height="30" fill="#000000" opacity="0.05"/></svg>