<svg viewBox="0 0 400 150" xmlns="http://www.w3.org/2000/svg" preserveAspectRatio="xMidYMid slice"><defs><linearGradient id="s" x1="0" y1="0" x2="0" y2="1"><stop offset="0" stop-color="#a9b6f0"/><stop offset="1" stop-color="#e0e5fb"/></linearGradient></defs><rect width="400" height="150" fill="url(#s)"/><circle cx="332" cy="38" r="22" fill="#fff" opacity="0.85"/><rect x="10" y="74" width="26" height="76" rx="2" fill="#6a7bd0"/><rect x="14" y="82" width="4" height="6" fill="#ffffff" opacity="0.35"/><rect x="22" y="82" width="4" height="6" fill="#ffffff" opacity="0.35"/><rect x="30" y="82" width="4" height="6" fill="#ffffff" opacity="0.35"/><rect x="14" y="98" width="4" height="6" fill="#ffffff" opacity="0.35"/><rect x="22" y="98" width="4" height="6" fill="#ffffff" opacity="0.35"/><rect x="30" y="98" width="4" height="6" fill="#ffffff" opacity="0.35"/><rect x="14" y="114" width="4" height="6" fill="#ffffff" opacity="0.35"/><rect x="22" y="114" width="4" height="6" fill="#ffffff" opacity="0.35"/><rect x="30" y="114" width="4" height="6" fill="#ffffff" opacity="0.35"/><rect x="44" y="48" width="26" height="102" rx="2" fill="#4b5aa0"/><rect x="48" y="56" width="4" height="6" fill="#ffffff" opacity="0.35"/><rect x="56" y="56" width="4" height="6" fill="#ffffff" opacity="0.35"/><rect x="64" y="56" width="4" height="6" fill="#ffffff" opacity="0.35"/><rect x="48" y="72" width="4" height="6" fill="#ffffff" opacity="0.35"/><rect x="56" y="72" width="4" height="6" fill="#ffffff" opacity="0.35"/><rect x="64" y="72" width="4" height="6" fill="#ffffff" opacity="0.35"/><rect x="48" y="88" width="4" height="6" fill="#ffffff" opacity="0.35"/><rect x="56" y="88" width="4" height="6" fill="#ffffff" opacity="0.35"/><rect x="64" y="88" width="4" height="6" fill="#ffffff" opacity="0.35"/><rect x="48" y="104" width="4" height="6" fill="#ffffff" opacity="0.35"/><rect x="56" y="104" width="4" height="6" fill="#ffffff" opacity="0.35"/><rect x="64" y="104" width="4" height="6" fill="#ffffff" opacity="0.35"/><rect x="48" y="120" width="4" height="6" fill="#ffffff" opacity="0.35"/><rect x="56" y="120" width="4" height="6" fill="#ffffff" opacity="0.35"/><rect x="64" y="120" width="4" height="6" fill="#ffffff" opacity="0.35"/><rect x="74" y="66" width="26" height="84" rx="2" fill="#6a7bd0"/><rect x="78" y="74" width="4" height="6" fill="#ffffff" opacity="0.35"/><rect x="86" y="74" width="4" height="6" fill="#ffffff" opacity="0.35"/><rect x="94" y="74" width="4" height="6" fill="#ffffff" opacity="0.35"/><rect x="78" y="90" width="4" height="6" fill="#ffffff" opacity="0.35"/><rect x="86" y="90" width="4" height="6" fill="#ffffff" opacity="0.35"/><rect x="94" y="90" width="4" height="6" fill="#ffffff" opacity="0.35"/><rect x="78" y="106" width="4" height="6" fill="#ffffff" opacity="0.35"/><rect x="86" y="106" width="4" height="6" fill="#ffffff" opacity="0.35"/><rect x="94" y="106" width="4" height="6" fill="#ffffff" opacity="0.35"/><rect x="78" y="122" width="4" height="6" fill="#ffffff" opacity="0.35"/><rect x="86" y="122" width="4" height="6" fill="#ffffff" opacity="0.35"/><rect x="94" y="122" width="4" height="6" fill="#ffffff" opacity="0.35"/><rect x="110" y="34" width="26" height="116" rx="2" fill="#4b5aa0"/><rect x="114" y="42" width="4" height="6" fill="#ffffff" opacity="0.35"/><rect x="122" y="42" width="4" height="6" fill="#ffffff" opacity="0.35"/><rect x="130" y="42" width="4" height="6" fill="#ffffff" opacity="0.35"/><rect x="114" y="58" width="4" height="6" fill="#ffffff" opacity="0.35"/><rect x="122" y="58" width="4" height="6" fill="#ffffff" opacity="0.35"/><rect x="130" y="58" width="4" height="6" fill="#ffffff" opacity="0.35"/><rect x="114" y="74" width="4" height="6" fill="#ffffff" opacity="0.35"/><rect x="122" y="74" width="4" height="6" fill="#ffffff" opacity="0.35"/><rect x="130" y="74" width="4" height="6" fill="#ffffff" opacity="0.35"/><rect x="114" y="90" width="4" height="6" fill="#ffffff" opacity="0.35"/><rect x="122" y="90" width="4" height="6" fill="#ffffff" opacity="0.35"/><rect x="130" y="90" width="4" height="6" fill="#ffffff" opacity="0.35"/><rect x="114" y="106" width="4" height="6" fill="#ffffff" opacity="0.35"/><rect x="122" y="106" width="4" height="6" fill="#ffffff" opacity="0.35"/><rect x="130" y="106" width="4" height="6" fill="#ffffff" opacity="0.35"/><rect x="114" y="122" width="4" height="6" fill="#ffffff" opacity="0.35"/><rect x="122" y="122" width="4" height="6" fill="#ffffff" opacity="0.35"/><rect x="130" y="122" width="4" height="6" fill="#ffffff" opacity="0.35"/><rect x="150" y="60" width="26" height="90" rx="2" fill="#6a7bd0"/><rect x="154" y="68" width="4" height="6" fill="#ffffff" opacity="0.35"/><rect x="162" y="68" width="4" height="6" fill="#ffffff" opacity="0.35"/><rect x="170" y="68" width="4" height="6" fill="#ffffff" opacity="0.35"/><rect x="154" y="84" width="4" height="6" fill="#ffffff" opacity="0.35"/><rect x="162" y="84" width="4" height="6" fill="#ffffff" opacity="0.35"/><rect x="170" y="84" width="4" height="6" fill="#ffffff" opacity="0.35"/><rect x="154" y="100" width="4" height="6" fill="#ffffff" opacity="0.35"/><rect x="162" y="100" width="4" height="6" fill="#ffffff" opacity="0.35"/><rect x="170" y="100" width="4" height="6" fill="#ffffff" opacity="0.35"/><rect x="154" y="116" width="4" height="6" fill="#ffffff" opacity="0.35"/><rect x="162" y="116" width="4" height="6" fill="#ffffff" opacity="0.35"/><rect x="170" y="116" width="4" height="6" fill="#ffffff" opacity="0.35"/><rect x="186" y="22" width="26" height="128" rx="2" fill="#4b5aa0"/><rect x="190" y="30" width="4" height="6" fill="#ffffff" opacity="0.35"/><rect x="198" y="30" width="4" height="6" fill="#ffffff" opacity="0.35"/><rect x="206" y="30" width="4" height="6" fill="#ffffff" opacity="0.35"/><rect x="190" y="46" width="4" height="6" fill="#ffffff" opacity="0.35"/><rect x="198" y="46" width="4" height="6" fill="#ffffff" opacity="0.35"/><rect x="206" y="46" width="4" height="6" fill="#ffffff" opacity="0.35"/><rect x="190" y="62" width="4" height="6" fill="#ffffff" opacity="0.35"/><rect x="198" y="62" width="4" height="6" fill="#ffffff" opacity="0.35"/><rect x="206" y="62" width="4" height="6" fill="#ffffff" opacity="0.35"/><rect x="190" y="78" width="4" height="6" fill="#ffffff" opacity="0.35"/><rect x="198" y="78" width="4" height="6" fill="#ffffff" opacity="0.35"/><rect x="206" y="78" width="4" height="6" fill="#ffffff" opacity="0.35"/><rect x="190" y="94" width="4" height="6" fill="#ffffff" opacity="0.35"/><rect x="198" y="94" width="4" height="6" fill="#ffffff" opacity="0.35"/><rect x="206" y="94" width="4" height="6" fill="#ffffff" opacity="0.35"/><rect x="190" y="110" width="4" height="6" fill="#ffffff" opacity="0.35"/><rect x="198" y="110" width="4" height="6" fill="#ffffff" opacity="0.35"/><rect x="206" y="110" width="4" height="6" fill="#ffffff" opacity="0.35"/><rect x="190" y="126" width="4" height="6" fill="#ffffff" opacity="0.35"/><rect x="198" y="126" width="4" height="6" fill="#ffffff" opacity="0.35"/><rect x="206" y="126" width="4" height="6" fill="#ffffff" opacity="0.35"/><rect x="222" y="62" width="26" height="88" rx="2" fill="#6a7bd0"/><rect x="226" y="70" width="4" height="6" fill="#ffffff" opacity="0.35"/><rect x="234" y="70" width="4" height="6" fill="#ffffff" opacity="0.35"/><rect x="242" y="70" width="4" height="6" fill="#ffffff" opacity="0.35"/><rect x="226" y="86" width="4" height="6" fill="#ffffff" opacity="0.35"/><rect x="234" y="86" width="4" height="6" fill="#ffffff" opacity="0.35"/><rect x="242" y="86" width="4" height="6" fill="#ffffff" opacity="0.35"/><rect x="226" y="102" width="4" height="6" fill="#ffffff" opacity="0.35"/><rect x="234" y="102" width="4" height="6" fill="#ffffff" opacity="0.35"/><rect x="242" y="102" width="4" height="6" fill="#ffffff" opacity="0.35"/><rect x="226" y="118" width="4" height="6" fill="#ffffff" opacity="0.35"/><rect x="234" y="118" width="4" height="6" fill="#ffffff" opacity="0.35"/><rect x="242" y="118" width="4" height="6" fill="#ffffff" opacity="0.35"/><rect x="258" y="42" width="26" height="108" rx="2" fill="#4b5aa0"/><rect x="262" y="50" width="4" height="6" fill="#ffffff" opacity="0.35"/><rect x="270" y="50" width="4" height="6" fill="#ffffff" opacity="0.35"/><rect x="278" y="50" width="4" height="6" fill="#ffffff" opacity="0.35"/><rect x="262" y="66" width="4" height="6" fill="#ffffff" opacity="0.35"/><rect x="270" y="66" width="4" height="6" fill="#ffffff" opacity="0.35"/><rect x="278" y="66" width="4" height="6" fill="#ffffff" opacity="0.35"/><rect x="262" y="82" width="4" height="6" fill="#ffffff" opacity="0.35"/><rect x="270" y="82" width="4" height="6" fill="#ffffff" opacity="0.35"/><rect x="278" y="82" width="4" height="6" fill="#ffffff" opacity="0.35"/><rect x="262" y="98" width="4" height="6" fill="#ffffff" opacity="0.35"/><rect x="270" y="98" width="4" height="6" fill="#ffffff" opacity="0.35"/><rect x="278" y="98" width="4" height="6" fill="#ffffff" opacity="0.35"/><rect x="262" y="114" width="4" height="6" fill="#ffffff" opacity="0.35"/><rect x="270" y="114" width="4" height="6" fill="#ffffff" opacity="0.35"/><rect x="278" y="114" width="4" height="6" fill="#ffffff" opacity="0.35"/><rect x="300" y="70" width="26" height="80" rx="2" fill="#6a7bd0"/><rect x="304" y="78" width="4" height="6" fill="#ffffff" opacity="0.35"/><rect x="312" y="78" width="4" height="6" fill="#ffffff" opacity="0.35"/><rect x="320" y="78" width="4" height="6" fill="#ffffff" opacity="0.35"/><rect x="304" y="94" width="4" height="6" fill="#ffffff" opacity="0.35"/><rect x="312" y="94" width="4" height="6" fill="#ffffff" opacity="0.35"/><rect x="320" y="94" width="4" height="6" fill="#ffffff" opacity="0.35"/><rect x="304" y="110" width="4" height="6" fill="#ffffff" opacity="0.35"/><rect x="312" y="110" width="4" height="6" fill="#ffffff" opacity="0.35"/><rect x="320" y="110" width="4" height="6" fill="#ffffff" opacity="0.35"/><rect x="304" y="126" width="4" height="6" fill="#ffffff" opacity="0.35"/><rect x="312" y="126" width="4" height="6" fill="#ffffff" opacity="0.35"/><rect x="320" y="126" width="4" height="6" fill="#ffffff" opacity="0.35"/><rect x="340" y="54" width="26" height="96" rx="2" fill="#4b5aa0"/><rect x="344" y="62" width="4" height="6" fill="#ffffff" opacity="0.35"/><rect x="352" y="62" width="4" height="6" fill="#ffffff" opacity="0.35"/><rect x="360" y="62" width="4" height="6" fill="#ffffff" opacity="0.35"/><rect x="344" y="78" width="4" height="6" fill="#ffffff" opacity="0.35"/><rect x="352" y="78" width="4" height="6" fill="#ffffff" opacity="0.35"/><rect x="360" y="78" width="4" height="6" fill="#ffffff" opacity="0.35"/><rect x="344" y="94" width="4" height="6" fill="#ffffff" opacity="0.35"/><rect x="352" y="94" width="4" height="6" fill="#ffffff" opacity="0.35"/><rect x="360" y="94" width="4" height="6" fill="#ffffff" opacity="0.35"/><rect x="344" y="110" width="4" height="6" fill="#ffffff" opacity="0.35"/><rect x="352" y="110" width="4" height="6" fill="#ffffff" opacity="0.35"/><rect x="360" y="110" width="4" height="6" fill="#ffffff" opacity="0.35"/><rect x="344" y="126" width="4" height="6" fill="#ffffff" opacity="0.35"/><rect x="352" y="126" width="4" height="6" fill="#ffffff" opacity="0.35"/><rect x="360" y="126" width="4" height="6" fill="#ffffff" opacity="0.35"/><rect x="372" y="76" width="26" height="74" rx="2" fill="#6a7bd0"/><rect x="376" y="84" width="4" height="6" fill="#ffffff" opacity="0.35"/><rect x="384" y="84" width="4" height="6" fill="#ffffff" opacity="0.35"/><rect x="392" y="84" width="4" height="6" fill="#ffffff" opacity="0.35"/><rect x="376" y="100" width="4" height="6" fill="#ffffff" opacity="0.35"/><rect x="384" y="100" width="4" height="6" fill="#ffffff" opacity="0.35"/><rect x="392" y="100" width="4" height="6" fill="#ffffff" opacity="0.35"/><rect x="376" y="116" width="4" height="6" fill="#ffffff" opacity="0.35"/><rect x="384" y="116" width="4" height="6" fill="#ffffff" opacity="0.35"/><rect x="392" y="116" width="4" height="6" fill="#ffffff" opacity="0.35"/><g stroke="#ffffff" stroke-width="3" opacity="0.5" fill="none"><path d="M40 122 L110 98 L170 110 L250 80"/></g><g transform="translate(300,64)"><path d="M0 0 q10 -30 0 -52 q-10 22 0 52 Z" fill="#ffffff"/><path d="M-6 -6 l-8 10 8 -2 Z" fill="#c0392b"/><path d="M6 -6 l8 10 -8 -2 Z" fill="#c0392b"/><circle cx="0" cy="-30" r="4" fill="#8ec5ff"/></g><rect x="0" y="120" width="400" height="30" fill="#000000" opacity="0.05"/></svg>